<?xml version="1.0" encoding="UTF-8"?>
<svg xmlns="http://www.w3.org/2000/svg" version="1.1" viewBox="0 0 32 32">
  <defs>
    <style>
      .cls-1 {
        fill: #fff;
      }

      .cls-2 {
        fill: #002235;
      }
    </style>
  </defs>
  <!-- Generator: Adobe Illustrator 28.6.0, SVG Export Plug-In . SVG Version: 1.2.0 Build 709)  -->
  <g>
    <g id="Layer_1">
      <g>
        <path class="cls-2" d="M16,0C7.1,0,0,7.2,0,16s7.2,16,16,16,16-7.2,16-16S24.8,0,16,0ZM13.2,21.9l-2.6,7.4-2.4-7.1,3.6-10.6h4.9l-2.7,7.7c3.7-.4,7.9-3.6,7.9-6.2s-1.2-2.5-3-2.5H6.8l-1-3.1h7.6l.6-1.5h1.9l-.6,1.6h.9l.6-1.6h2l-.6,1.6h4.5c2.4,0,5.1,1.2,5,4.6,0,5.3-8.5,8.8-14.5,9.7Z"/>
        <path class="cls-1" d="M22.7,7.6h-4.5l.6-1.6h-2l-.6,1.6h-.9l.6-1.6h-1.9l-.6,1.5h-7.6l1,3.1h12.1c1.8,0,3,0,3,2.5s-4.2,5.8-7.9,6.2l2.7-7.7h-4.9l-3.6,10.6,2.4,7.1,2.6-7.4c6-.9,14.5-4.4,14.5-9.7,0-3.4-2.6-4.6-5-4.6Z"/>
      </g>
    </g>
  </g>
</svg>